<svg xmlns="http://www.w3.org/2000/svg" width="512" height="512"><path d="M299.472 270.518c-8.49.118 1.607 4.376 12.692 6.082 3.062-2.391 5.84-4.81 8.317-7.164-6.904 1.692-13.93 1.73-21.009 1.082M345.048 259.159c5.056-6.98 8.741-14.62 10.04-22.52-1.133 5.632-4.19 10.494-7.068 15.626-15.872 9.994-1.493-5.935-.01-11.988-17.067 21.48-2.343 12.88-2.962 18.882M361.87 215.384c1.025-15.29-3.01-10.457-4.367-4.621 1.583.822 2.835 10.778 4.366 4.621M267.275 6.386c4.531.813 9.79 1.437 9.053 2.519 4.957-1.087 6.082-2.089-9.053-2.519"/><path d="M276.328 8.905l-3.204.661 2.982-.264.222-.397"/><path d="M417.632 221.182c.506 13.732-4.016 20.394-8.094 32.188l-7.339 3.667c-6.005 11.662.582 7.405-3.718 16.68-9.375 8.336-28.451 26.084-34.556 27.705-4.456-.1 3.02-5.26 3.997-7.282-12.55 8.619-10.069 12.938-29.263 18.173l-.562-1.247c-47.338 22.27-113.095-21.864-112.23-82.083-.505 3.823-1.436 2.869-2.485 4.414-2.443-30.984 14.308-62.104 42.56-74.81 27.633-13.68 60.03-8.066 79.824 10.38-10.873-14.241-32.515-29.338-58.163-27.925-25.125.397-48.628 16.363-56.472 33.695-12.871 8.104-14.365 31.24-19.974 35.473-7.546 55.46 14.195 79.422 50.972 107.608 5.788 3.903 1.63 4.494 2.414 7.466-12.22-5.722-23.409-14.36-32.609-24.935 4.882 7.144 10.15 14.09 16.96 19.548-11.52-3.903-26.911-27.917-31.405-28.895 19.86 35.558 80.575 62.36 112.367 49.063-14.71.543-33.398.302-49.927-5.808-6.942-3.572-16.383-10.972-14.696-12.356 43.388 16.207 88.207 12.276 125.749-17.82 9.55-7.437 19.983-20.091 22.998-20.266-4.541 6.828.774 3.284-2.713 9.314 9.517-15.348-4.134-6.247 9.838-26.504l5.16 7.107c-1.918-12.74 15.82-28.21 14.02-48.359 4.068-6.161 4.541 6.63.222 20.806 5.992-15.726 1.578-18.254 3.119-31.23 1.663 4.362 3.846 8.997 4.966 13.6-3.903-15.197 4.007-25.592 5.963-34.424-1.928-.855-6.024 6.72-6.96-11.232.137-7.796 2.169-4.087 2.953-6.006-1.53-.878-5.547-6.856-7.99-18.32 1.772-2.693 4.735 6.985 7.144 7.381-1.55-9.115-4.22-16.065-4.328-23.059-7.04-14.714-2.49 1.961-8.203-6.317-7.494-23.376 6.218-5.425 7.145-16.047 11.36 16.458 17.837 41.965 20.81 52.53-2.268-12.88-5.935-25.36-10.41-37.433 3.45 1.45-5.557-26.504 4.484-7.99-10.726-39.466-45.906-76.342-78.269-93.646 3.96 3.625 8.96 8.175 7.164 8.889-16.095-9.583-13.264-10.33-15.57-14.38-13.113-5.334-13.973.43-22.658.01-24.713-13.108-29.476-11.714-52.218-19.926l1.034 4.834c-16.373-5.453-19.076 2.07-36.772.018-1.077-.84 5.67-3.043 11.223-3.85-15.83 2.088-15.088-3.12-30.577.576 3.818-2.68 7.853-4.451 11.926-6.729-12.91.785-30.818 7.513-25.29 1.394-21.055 9.394-58.45 22.582-79.435 42.258l-.662-4.409c-9.616 11.544-41.932 34.476-44.507 49.427l-2.57.6c-5.005 8.472-8.242 18.074-12.21 26.792-6.545 11.151-9.593 4.29-8.662 6.039-12.872 26.097-19.265 48.027-24.789 66.011 3.936 5.883.095 35.416 1.583 59.052-6.464 116.733 81.927 230.073 178.544 256.241 14.161 5.065 35.222 4.872 53.135 5.392-21.136-6.044-23.867-3.204-44.455-10.382-14.851-6.993-18.107-14.979-28.625-24.108l4.162 7.357c-20.63-7.3-11.997-9.035-28.781-14.35l4.446-5.808c-6.686-.505-17.71-11.27-20.725-17.228l-7.314.288c-8.79-10.844-13.472-18.66-13.132-24.713l-2.362 4.21c-2.68-4.597-32.335-40.67-16.95-32.273-2.859-2.613-6.658-4.253-10.778-11.738l3.133-3.581c-7.405-9.527-13.628-21.737-13.155-25.805 3.95 5.335 6.69 6.332 9.403 7.244-18.698-46.393-19.747-2.557-33.909-47.224l2.996-.241c-2.296-3.46-3.69-7.216-5.538-10.902l1.304-12.994c-13.462-15.565-3.766-66.182-1.824-93.943 1.347-11.288 11.237-23.305 18.76-42.15l-4.584-.788c8.76-15.282 50.022-61.372 69.13-59 9.257-11.629-1.837-.042-3.647-2.972 20.333-21.041 26.726-14.866 40.448-18.65 14.8-8.785-12.702 3.425-5.685-3.35 25.583-6.536 18.131-14.857 51.506-18.174 3.52 2.004-8.17 3.095-11.105 5.694 21.316-10.429 67.453-8.057 97.421 5.788 34.773 16.25 73.841 64.287 75.382 109.484l1.753.473c-.888 17.965 2.75 38.742-3.553 57.828l4.29-9.035"/><path d="M206.791 282.176l-1.19 5.953c5.58 7.58 10.008 15.792 17.133 21.718-5.127-10.008-8.935-14.143-15.943-27.671M219.984 281.656c-2.953-3.265-4.701-7.197-6.658-11.114 1.872 6.885 5.704 12.8 9.271 18.816l-2.613-7.702M453.43 230.916l-1.247 3.128c-2.287 16.246-7.225 32.32-14.795 47.224 8.364-15.725 13.775-32.925 16.043-50.352M268.952 2.313C274.693.21 283.066 1.16 289.157-.225c-7.938.667-15.839 1.064-23.64 2.07l3.435.468M67.396 109.491c1.323 12.248-9.214 17.002 2.335 8.926 6.19-13.944-2.42-3.85-2.335-8.926M53.825 166.175c2.66-8.165 3.143-13.07 4.159-17.795-7.353 9.399-3.384 11.402-4.159 17.795"/></svg>