<?xml version="1.0" standalone="no"?>
<!DOCTYPE svg PUBLIC "-//W3C//DTD SVG 20010904//EN"
 "http://www.w3.org/TR/2001/REC-SVG-20010904/DTD/svg10.dtd">
<svg version="1.0" xmlns="http://www.w3.org/2000/svg"
 width="512px" height="512px" viewBox="0 0 512 512"
 preserveAspectRatio="xMidYMid meet">

<g transform="translate(0.000000,512.000000) scale(0.100000,-0.100000)"
fill="#000000" stroke="none">
<path d="M1643 5084 c-27 -14 -41 -14 -77 -5 -63 16 -86 14 -131 -10 -22 -11
-63 -21 -92 -22 -35 -2 -62 -10 -82 -25 -21 -15 -44 -22 -78 -22 -67 0 -118
-16 -156 -49 -25 -22 -45 -29 -91 -33 -53 -4 -63 -9 -94 -43 -33 -36 -34 -39
-28 -94 10 -81 10 -82 -10 -131 -17 -44 -17 -46 6 -95 14 -32 23 -71 24 -106
1 -44 7 -65 30 -100 20 -29 30 -59 32 -86 2 -45 34 -107 65 -123 13 -7 19 -21
19 -43 0 -43 27 -85 89 -137 28 -24 51 -51 51 -61 0 -29 51 -80 103 -105 35
-15 57 -35 73 -62 24 -40 90 -82 127 -82 26 0 20 -14 -14 -34 -81 -48 -194
-144 -244 -208 -100 -128 -152 -270 -162 -448 -7 -121 -24 -167 -76 -199 -42
-25 -122 -110 -165 -174 -161 -235 -188 -546 -69 -783 19 -38 55 -97 81 -131
34 -47 50 -82 66 -144 12 -44 34 -118 51 -162 16 -45 38 -121 49 -169 24 -110
64 -207 123 -295 84 -127 227 -252 353 -310 32 -14 95 -52 139 -84 108 -76
223 -142 336 -190 67 -29 109 -56 150 -94 153 -141 365 -225 570 -225 210 0
406 78 579 229 47 41 89 67 149 91 90 36 258 133 348 201 31 23 90 59 132 79
145 71 268 184 357 326 48 77 98 202 109 274 3 25 22 90 42 145 19 55 45 139
58 187 17 63 33 100 58 130 53 65 113 183 138 273 30 104 32 276 5 380 -42
164 -150 338 -266 429 -33 26 -65 57 -72 69 -6 12 -18 78 -25 147 -7 69 -22
157 -34 195 -52 172 -158 315 -314 421 -47 32 -85 61 -85 64 0 4 17 12 39 18
51 16 90 48 107 88 9 21 23 34 41 39 54 13 95 47 118 97 12 26 39 62 60 78 51
41 83 86 91 129 4 20 19 50 34 66 39 42 50 68 50 115 0 29 8 51 26 75 32 43
47 95 35 127 -7 19 -4 33 15 63 28 46 31 93 8 136 -13 25 -13 39 -3 82 21 96
-24 155 -124 165 -36 4 -62 13 -87 33 -40 31 -96 49 -158 49 -29 0 -54 7 -74
22 -20 14 -49 22 -82 24 -28 1 -73 12 -101 25 -44 20 -55 21 -109 11 -51 -10
-67 -9 -108 6 -47 16 -50 16 -111 -6 -47 -17 -74 -21 -109 -16 -37 5 -56 2
-94 -17 -31 -15 -62 -22 -90 -20 -54 2 -99 -17 -148 -64 -32 -30 -45 -36 -67
-31 -22 4 -39 -3 -79 -33 -91 -69 -170 -179 -226 -315 -26 -63 -34 -76 -40
-61 -62 175 -156 314 -260 386 -32 22 -50 28 -69 23 -20 -5 -34 2 -70 35 -55
50 -84 62 -144 60 -31 -2 -60 5 -90 20 -36 19 -54 22 -95 17 -38 -5 -64 -1
-104 14 -63 24 -87 25 -129 4z m22 -178 c28 -14 57 -26 63 -26 16 0 15 43 0
58 -6 6 -9 15 -5 18 8 8 88 -39 134 -79 34 -30 36 -31 50 -12 9 12 12 31 9 49
l-6 28 38 -27 c20 -16 53 -44 74 -63 42 -40 58 -36 58 16 l0 37 81 -82 c45
-46 86 -83 91 -83 4 0 11 14 15 30 3 17 9 30 13 30 12 0 114 -138 148 -200 88
-159 97 -322 22 -417 -25 -32 -91 -82 -107 -83 -7 0 -55 31 -105 68 -234 172
-491 307 -790 417 -108 39 -109 40 87 -69 188 -104 345 -203 469 -294 106 -79
246 -208 246 -227 0 -6 -14 -39 -31 -73 -70 -141 -244 -225 -493 -239 l-110
-6 35 31 34 30 -25 6 c-14 3 -61 10 -105 15 -45 6 -94 15 -110 21 -28 11 -28
13 -10 20 12 4 26 14 33 22 9 12 -1 18 -61 37 -40 13 -90 33 -112 44 l-40 20
43 15 43 14 -83 47 c-92 52 -137 82 -138 94 0 4 18 7 40 7 22 0 40 4 40 9 0 4
-30 31 -67 58 -38 28 -77 60 -87 72 l-19 21 41 0 c23 0 42 4 42 9 0 5 -31 40
-70 79 -38 38 -70 74 -70 80 0 5 18 7 44 5 65 -8 65 10 3 70 -30 28 -63 65
-73 80 l-17 29 45 -7 c30 -5 48 -3 52 4 8 13 -32 106 -64 152 l-21 29 109 0
c60 0 112 3 115 7 4 4 -5 19 -19 34 l-26 28 37 7 c23 4 70 0 120 -10 46 -9 88
-16 94 -16 18 0 12 33 -11 57 l-22 23 35 -6 c19 -3 66 -15 105 -25 38 -10 73
-19 77 -19 15 0 6 30 -18 58 l-25 30 51 -13 c28 -8 75 -25 104 -39z m1837 24
c-13 -23 -14 -32 -5 -41 10 -10 27 -6 80 18 37 17 78 34 91 37 12 3 32 9 45
12 21 6 21 5 -5 -23 -24 -25 -38 -63 -23 -63 3 0 37 9 77 19 40 11 86 22 101
25 l28 7 -22 -30 c-12 -16 -19 -36 -16 -45 5 -13 12 -14 54 -1 71 20 138 28
179 20 l36 -6 -26 -28 c-14 -15 -26 -30 -26 -34 0 -4 50 -7 110 -7 101 0 129
-7 99 -26 -15 -9 -69 -125 -69 -148 0 -16 5 -18 45 -13 25 4 45 3 45 -1 0 -14
-43 -66 -89 -108 -54 -50 -49 -69 15 -61 55 6 51 -3 -40 -92 -36 -36 -63 -68
-60 -73 3 -4 22 -8 41 -8 l37 0 -30 -31 c-16 -17 -53 -49 -81 -71 -29 -22 -53
-44 -53 -49 0 -5 19 -9 43 -9 l42 -1 -35 -29 c-19 -17 -69 -48 -112 -71 -43
-22 -76 -44 -73 -49 3 -5 21 -12 41 -16 32 -6 33 -8 17 -20 -10 -7 -60 -27
-110 -44 -51 -18 -93 -36 -93 -41 0 -5 11 -15 25 -21 14 -6 25 -14 25 -18 0
-9 -89 -27 -173 -36 -37 -3 -70 -11 -74 -17 -3 -6 7 -21 23 -35 l29 -24 -107
5 c-126 7 -218 28 -307 69 -102 49 -185 137 -211 227 -8 29 -5 34 53 87 176
160 489 369 750 501 38 19 67 36 64 39 -9 10 -274 -101 -436 -182 -169 -85
-336 -187 -449 -276 -77 -60 -92 -59 -161 10 -97 97 -105 227 -26 400 27 60
114 188 149 221 l24 22 10 -30 c6 -17 15 -31 19 -31 4 0 43 37 85 82 l77 83 1
-36 c0 -64 17 -64 87 1 35 33 68 60 73 60 6 0 10 -13 10 -28 0 -48 18 -55 60
-22 39 31 120 80 132 80 4 0 -1 -13 -10 -30z m-732 -1296 c98 -28 225 -100
280 -161 69 -76 83 -106 78 -165 -12 -120 -165 -213 -393 -239 -122 -14 -253
-5 -342 22 -225 70 -332 188 -279 312 30 71 160 170 288 219 104 39 251 44
368 12z m-803 -96 c22 -18 -23 -84 -140 -205 -241 -249 -576 -495 -642 -470
-38 15 -1 247 59 364 68 136 200 248 346 294 110 35 342 45 377 17z m1548 -13
c173 -36 334 -157 408 -306 47 -95 77 -213 77 -301 0 -85 -9 -90 -88 -51 -212
106 -634 474 -700 611 -16 32 -16 35 3 48 26 19 207 18 300 -1z m-239 -505
c92 -17 253 -101 321 -168 267 -263 293 -663 58 -870 -219 -193 -585 -122
-780 152 -97 137 -138 255 -139 401 -1 241 141 433 357 480 78 17 108 18 183
5z m-1155 -30 c162 -31 310 -173 355 -344 18 -68 18 -208 -1 -281 -99 -387
-501 -626 -805 -478 -127 61 -232 211 -253 360 -12 83 1 225 29 306 24 71 102
183 183 264 136 137 328 204 492 173z m2026 -354 c96 -70 173 -178 214 -299
17 -49 21 -86 21 -177 -1 -134 -17 -203 -68 -301 -33 -63 -110 -149 -133 -149
-20 0 -73 55 -95 99 -29 57 -70 183 -91 276 -21 91 -32 443 -16 501 14 51 52
94 84 94 14 0 52 -20 84 -44z m-3006 24 c6 0 22 -26 37 -57 26 -56 27 -64 27
-223 -1 -130 -6 -189 -23 -277 -42 -212 -94 -341 -156 -388 -32 -25 -36 -25
-58 -11 -33 22 -94 104 -122 167 -39 85 -57 167 -58 264 0 143 37 259 123 372
63 83 176 170 207 158 8 -3 18 -5 23 -5z m1611 -744 c199 -36 384 -207 427
-396 6 -25 11 -79 11 -121 0 -192 -109 -361 -295 -452 -94 -47 -178 -67 -281
-67 -266 0 -510 197 -555 450 -31 177 54 370 215 485 144 103 292 134 478 101z
m1238 -208 c78 -40 117 -139 126 -323 5 -82 2 -127 -10 -177 -61 -258 -314
-497 -558 -527 -136 -17 -228 14 -265 89 -60 117 -4 390 116 572 47 71 205
233 286 295 118 89 221 113 305 71z m-2599 -78 c116 -35 268 -143 360 -255 67
-80 145 -240 165 -335 21 -99 16 -212 -12 -264 -32 -63 -78 -81 -199 -81 -89
1 -108 4 -172 32 -267 114 -437 370 -437 659 0 92 3 106 29 160 50 99 133 125
266 84z m1537 -969 c140 -35 232 -95 232 -151 0 -70 -135 -203 -275 -270 -237
-114 -478 -86 -696 79 -68 51 -125 119 -136 159 -16 66 152 158 362 197 118
21 402 14 513 -14z"/>
</g>
</svg>
