<svg xmlns="http://www.w3.org/2000/svg" xmlns:xlink="http://www.w3.org/1999/xlink" width="512" height="512"><circle cx="255.5" cy="256.5" r="256.5"/><path d="M39.921 153.5L187 67.922 334.078 153.5 187 239.078z"/><path d="M177.977 421.67c-41.601-25.753-81.578-50.5-88.836-54.995l-13.197-8.17 89.11-55.008 89.11-55.007 88.468 54.607c48.657 30.035 88.468 54.98 88.468 55.436 0 .705-174.578 109.113-176.721 109.739-.42.122-34.8-20.849-76.402-46.602z" fill="#fff"/><circle r="70.5" cy="203.5" cx="127.5" id="a" fill="#fff" stroke-width="1.007"/><use xlink:href="#a"/><use xlink:href="#a" transform="matrix(-1 0 0 1 509 0)" width="100%" height="100%"/><g><circle r="40.5" cy="201.5" cx="126.5" id="b" fill="#000" stroke-width=".827"/><use xlink:href="#b"/><use xlink:href="#b" transform="matrix(-1 0 0 1 510 0)" width="100%" height="100%"/></g></svg>